# Blender v2.78 (sub 0) OBJ File: ''
# www.blender.org
mtllib crossbow.mtl
o Cube.001
v 0.037076 0.064060 0.737196
v 0.037076 -0.024814 0.723172
v 0.037076 0.064060 -0.178282
v 0.037076 -0.093965 -0.129196
v 0.037076 0.064060 0.530839
v 0.037076 -0.044067 0.530839
v 0.037076 0.064060 0.132152
v 0.037076 -0.047524 0.132152
v 0.037076 0.064060 0.030412
v 0.037076 -0.085567 -0.056007
v 0.037076 0.006048 -0.563988
v 0.037076 -0.165260 -0.563988
v 0.040305 0.025106 -0.339788
v 0.037076 -0.146202 -0.339788
v 0.037076 -0.057998 0.696983
v 0.037076 0.064060 0.696983
v 0.037076 -0.023818 -0.129196
v 0.037076 0.021240 0.737196
v 0.037076 0.009996 0.530839
v 0.037076 0.008268 0.132152
v 0.037076 -0.017112 -0.018675
v 0.037076 -0.079606 -0.563988
v 0.037076 -0.060548 -0.339788
v 0.037076 0.024271 0.696983
v 0.481399 0.021240 0.450951
v 0.481399 0.064060 0.450951
v 0.437352 0.064060 0.440690
v 0.437352 0.024271 0.440690
v 0.289246 0.024271 0.616047
v 0.289246 0.064060 0.616047
v 0.289246 0.021240 0.656261
v 0.289246 0.064060 0.656261
v 0.441329 0.024271 0.455938
v 0.463572 0.021240 0.469999
v 0.441329 0.064060 0.455938
v 0.463572 0.064060 0.469999
v 0.441329 0.043817 0.455938
v 0.437352 0.045260 0.440690
v 0.035360 0.029007 0.214193
v 0.035360 0.047807 0.214193
v 0.039337 0.047807 0.229441
v 0.039337 0.027563 0.229441
v 0.037076 -0.107248 -0.178282
v 0.037076 -0.081922 0.030412
v 0.037076 -0.021594 -0.178282
v 0.037076 -0.008931 0.030412
v -0.037076 0.064060 0.737196
v -0.037076 -0.024814 0.723172
v -0.037076 0.064060 -0.178282
v -0.037076 -0.093965 -0.129196
v -0.037076 0.064060 0.530839
v -0.037076 -0.044067 0.530839
v -0.037076 0.064060 0.132152
v -0.037076 -0.047524 0.132152
v -0.037076 0.064060 0.030412
v -0.037076 -0.085567 -0.056007
v -0.037076 0.006048 -0.563988
v -0.037076 -0.165260 -0.563988
v -0.040103 0.025106 -0.339788
v -0.037076 -0.146202 -0.339788
v -0.037076 -0.057998 0.696983
v -0.037076 0.064060 0.696983
v -0.037076 -0.023818 -0.129196
v -0.037076 0.021240 0.737196
v -0.037076 0.009996 0.530839
v -0.037076 0.008268 0.132152
v -0.037076 -0.017112 -0.018675
v -0.037076 -0.079606 -0.563988
v -0.037076 -0.060548 -0.339788
v -0.037076 0.024271 0.696983
v 0.000000 0.064060 -0.178282
v 0.000000 -0.107248 -0.178282
v 0.000000 0.064060 0.737196
v 0.000000 -0.024814 0.723172
v 0.000000 -0.044067 0.530839
v 0.000000 0.064060 0.530839
v 0.000000 0.064060 0.132152
v 0.000000 -0.047524 0.132152
v 0.000000 -0.081922 0.030412
v 0.000000 0.064060 0.030412
v 0.000000 0.006048 -0.563988
v 0.000000 -0.165260 -0.563988
v 0.000000 -0.146202 -0.339788
v 0.000000 0.025106 -0.339788
v 0.000000 -0.057998 0.696982
v 0.000000 0.064060 0.696982
v 0.000000 -0.079606 -0.563988
v 0.000000 0.021240 0.737196
v -0.481399 0.021240 0.450951
v -0.481399 0.064060 0.450951
v -0.437352 0.064060 0.440690
v -0.437352 0.024271 0.440690
v -0.289246 0.024271 0.616047
v -0.289246 0.064060 0.616047
v -0.289246 0.021240 0.656261
v -0.289246 0.064060 0.656261
v -0.441329 0.024271 0.455938
v -0.463572 0.021240 0.469999
v -0.441329 0.064060 0.455938
v -0.463572 0.064060 0.469999
v -0.441329 0.043817 0.455938
v -0.437352 0.045260 0.440690
v -0.035360 0.029007 0.214193
v -0.035360 0.047807 0.214193
v -0.039337 0.047807 0.229441
v -0.039337 0.027563 0.229441
v -0.037076 -0.107248 -0.178282
v -0.037076 -0.081922 0.030412
v -0.037076 -0.021594 -0.178282
v -0.037076 -0.008931 0.030412
v 0.000000 -0.093965 -0.129196
v 0.000000 -0.085567 -0.056007
v 0.000000 -0.023818 -0.129196
v 0.000000 -0.017112 -0.018675
vt 0.4116 0.8759
vt 0.3846 0.9376
vt 0.3701 0.8797
vt 0.6323 0.9484
vt 0.5781 0.9839
vt 0.5781 0.9484
vt 0.7055 0.8720
vt 0.6797 0.9496
vt 0.6796 0.8721
vt 0.2423 0.0808
vt 0.0840 0.0601
vt 0.0840 0.0815
vt 0.2827 0.0740
vt 0.2423 0.0587
vt 0.6796 0.8523
vt 0.6796 0.8117
vt 0.7055 0.8523
vt 0.9697 0.7073
vt 0.9082 0.6820
vt 0.9697 0.6820
vt 0.4643 0.9834
vt 0.4405 0.9117
vt 0.4643 0.9117
vt 0.7493 0.7060
vt 0.7749 0.6599
vt 0.7749 0.7060
vt 0.4297 0.0535
vt 0.5188 0.0800
vt 0.5188 0.0459
vt 0.3656 0.0690
vt 0.4297 0.0875
vt 0.7493 0.7759
vt 0.7749 0.7759
vt 0.7055 0.9496
vt 0.6797 0.9819
vt 0.0180 0.0545
vt 0.0180 0.0872
vt 0.0840 0.1030
vt 0.0180 0.1030
vt 0.3656 0.0350
vt 0.4297 0.0195
vt 0.5188 0.0119
vt 0.4405 0.8399
vt 0.4643 0.8399
vt 0.3656 0.1030
vt 0.2827 0.1030
vt 0.2423 0.1030
vt 0.5684 0.5283
vt 0.7443 0.6217
vt 0.5667 0.5216
vt 0.6315 0.7899
vt 0.5780 0.7094
vt 0.6315 0.7094
vt 0.7493 0.9475
vt 0.7749 0.9814
vt 0.7493 0.9814
vt 0.7055 0.8117
vt 0.6796 0.7190
vt 0.7054 0.7190
vt 0.7493 0.8286
vt 0.7749 0.8286
vt 0.7493 0.8886
vt 0.7749 0.9475
vt 0.6315 0.9390
vt 0.5780 0.8765
vt 0.6315 0.8765
vt 0.5780 0.7899
vt 0.7054 0.6580
vt 0.1229 0.8613
vt 0.1399 0.8853
vt 0.1096 0.8853
vt 0.5612 0.4742
vt 0.5432 0.4764
vt 0.5630 0.4810
vt 0.9660 0.1730
vt 0.9844 0.1753
vt 0.9762 0.1665
vt 0.4486 0.4937
vt 0.4562 0.4752
vt 0.4486 0.4752
vt 0.2649 0.4937
vt 0.3735 0.4752
vt 0.2649 0.4752
vt 0.7803 0.0622
vt 0.8961 0.0809
vt 0.7803 0.0437
vt 0.7427 0.3660
vt 0.6295 0.3842
vt 0.6295 0.4023
vt 0.2657 0.4347
vt 0.3838 0.4534
vt 0.2657 0.4534
vt 0.3735 0.4937
vt 0.8961 0.0994
vt 0.5512 0.4678
vt 0.3838 0.4347
vt 0.4550 0.4439
vt 0.0704 0.8368
vt 0.0591 0.9005
vt 0.0591 0.8368
vt 0.1753 0.8339
vt 0.1666 0.8847
vt 0.1666 0.8301
vt 0.4540 0.2561
vt 0.0733 0.2792
vt 0.0721 0.2561
vt 0.9623 0.2158
vt 0.7793 0.3129
vt 0.7775 0.3199
vt 0.4490 0.3444
vt 0.0783 0.3201
vt 0.4503 0.3201
vt 0.3170 0.0436
vt 0.2827 0.0450
vt 0.3461 0.0402
vt 0.3022 0.0708
vt 0.3461 0.0681
vt 0.9405 0.8130
vt 0.9100 0.7378
vt 0.9405 0.7378
vt 0.8823 0.8923
vt 0.9118 0.9631
vt 0.8823 0.9631
vt 0.9669 0.8611
vt 0.9082 0.8395
vt 0.9669 0.8395
vt 0.3078 0.8772
vt 0.3358 0.9388
vt 0.3078 0.9805
vt 0.5240 0.9484
vt 0.6538 0.8721
vt 0.2419 0.1816
vt 0.0839 0.1609
vt 0.2419 0.1595
vt 0.2822 0.1748
vt 0.2822 0.1459
vt 0.6538 0.8523
vt 0.6538 0.8117
vt 0.8467 0.7073
vt 0.8467 0.6820
vt 0.4882 0.9117
vt 0.8006 0.7060
vt 0.4289 0.1543
vt 0.5177 0.1807
vt 0.4289 0.1883
vt 0.3649 0.1698
vt 0.3649 0.2037
vt 0.8006 0.7759
vt 0.6538 0.9496
vt 0.0839 0.1823
vt 0.0181 0.1554
vt 0.0839 0.2037
vt 0.0181 0.1880
vt 0.3649 0.1358
vt 0.4289 0.1204
vt 0.5177 0.1468
vt 0.4882 0.8399
vt 0.2822 0.2037
vt 0.2419 0.2037
vt 0.7791 0.6217
vt 0.9550 0.5283
vt 0.9568 0.5216
vt 0.5245 0.7899
vt 0.5245 0.7094
vt 0.8006 0.9475
vt 0.8006 0.8286
vt 0.8006 0.8886
vt 0.7749 0.8886
vt 0.5244 0.9390
vt 0.5780 0.9390
vt 0.5245 0.8765
vt 0.6537 0.6580
vt 0.6538 0.7190
vt 0.1096 0.8613
vt 0.1118 0.8373
vt 0.1266 0.8373
vt 0.9574 0.4741
vt 0.9754 0.4764
vt 0.9674 0.4678
vt 0.5420 0.1753
vt 0.5604 0.1730
vt 0.5502 0.1665
vt 0.0417 0.4752
vt 0.0494 0.4937
vt 0.0494 0.4752
vt 0.1244 0.4752
vt 0.2330 0.4937
vt 0.2330 0.4752
vt 0.6303 0.0809
vt 0.7462 0.0622
vt 0.7462 0.0437
vt 0.7760 0.3660
vt 0.8891 0.3842
vt 0.7760 0.3479
vt 0.1128 0.4534
vt 0.2309 0.4347
vt 0.2309 0.4534
vt 0.1244 0.4937
vt 0.6303 0.0994
vt 0.8891 0.4023
vt 0.0416 0.4534
vt 0.0416 0.4439
vt 0.0805 0.8367
vt 0.0919 0.9006
vt 0.0805 0.9055
vt 0.1666 0.8847
vt 0.1580 0.8339
vt 0.1666 0.8301
vt 0.0733 0.2792
vt 0.4540 0.3024
vt 0.0721 0.3024
vt 0.5602 0.2158
vt 0.7432 0.3129
vt 0.5584 0.2088
vt 0.4490 0.3444
vt 0.0783 0.3687
vt 0.0771 0.3444
vt 0.3164 0.1444
vt 0.3454 0.1411
vt 0.3454 0.1689
vt 0.3017 0.1716
vt 0.8795 0.8130
vt 0.8795 0.7378
vt 0.9412 0.8923
vt 0.9412 0.9631
vt 0.8496 0.8611
vt 0.8496 0.8395
vt 0.4116 0.9793
vt 0.6323 0.9839
vt 0.9082 0.7073
vt 0.4405 0.9834
vt 0.7493 0.6599
vt 0.7055 0.9819
vt 0.7461 0.6284
vt 0.6796 0.6580
vt 0.1096 0.8613
vt 0.1378 0.8613
vt 0.9642 0.1800
vt 0.4562 0.4937
vt 0.7427 0.3479
vt 0.4550 0.4534
vt 0.4550 0.4347
vt 0.0704 0.9054
vt 0.1753 0.8847
vt 0.4553 0.2792
vt 0.9641 0.2088
vt 0.0771 0.3444
vt 0.9100 0.8130
vt 0.9118 0.8923
vt 0.9082 0.8611
vt 0.3509 0.8811
vt 0.5240 0.9839
vt 0.4882 0.9834
vt 0.8006 0.6599
vt 0.6539 0.9819
vt 0.0181 0.2037
vt 0.5177 0.1128
vt 0.7773 0.6284
vt 0.8006 0.9814
vt 0.1399 0.8373
vt 0.1399 0.8613
vt 0.9556 0.4810
vt 0.5623 0.1800
vt 0.0417 0.4937
vt 0.1128 0.4347
vt 0.0416 0.4347
vt 0.0919 0.8367
vt 0.1580 0.8847
vt 0.4553 0.2792
vt 0.7450 0.3199
vt 0.4503 0.3687
vn -1.0000 -0.0000 0.0000
vn 0.0000 -1.0000 0.0000
vn 0.0000 0.9982 -0.0606
vn 0.0000 0.0000 1.0000
vn 0.0000 0.9964 -0.0847
vn -0.9992 0.0377 -0.0091
vn 0.0000 0.9721 -0.2345
vn -0.1085 0.9866 0.1217
vn 0.0000 0.0000 -1.0000
vn 0.0000 0.9965 0.0836
vn 0.0000 -0.9721 0.2345
vn 0.0000 0.9927 -0.1205
vn -0.0000 0.9473 -0.3203
vn 0.0000 1.0000 -0.0087
vn 0.0000 0.6195 -0.7850
vn -0.0000 0.2913 -0.9566
vn 0.0000 -0.9964 0.0847
vn -0.2269 0.0000 0.9739
vn 0.0731 0.9971 -0.0191
vn -0.7301 0.0000 -0.6833
vn -0.3056 0.0000 -0.9522
vn 0.0241 0.9969 0.0751
vn 0.3056 0.0000 0.9522
vn 0.0846 0.9932 0.0803
vn 0.7250 0.0000 0.6887
vn 0.9676 0.0000 -0.2524
vn -0.4909 0.0000 0.8712
vn 0.0473 -0.9988 -0.0123
vn 0.4909 0.0000 -0.8712
vn 0.0000 -0.4788 0.8779
vn 0.0000 -0.9935 0.1140
vn 1.0000 0.0000 0.0000
vn 0.9993 0.0353 0.0105
vn 0.9998 0.0000 -0.0187
vn 0.1085 0.9866 0.1217
vn 0.2269 0.0000 0.9739
vn -0.0850 0.9932 0.0796
vn 0.7301 0.0000 -0.6833
vn 0.3056 0.0000 -0.9522
vn -0.0241 0.9969 0.0751
vn -0.3056 0.0000 0.9522
vn -0.0800 0.9940 0.0749
vn -0.7250 0.0000 0.6887
vn -0.9676 0.0000 -0.2524
vn 0.4909 0.0000 0.8712
vn -0.0473 -0.9988 -0.0123
vn -0.4909 0.0000 -0.8712
vn -0.9992 0.0377 0.0112
vn -0.9998 0.0000 -0.0200
vn 0.0850 0.9932 0.0796
vn 0.0800 0.9940 0.0749
vn 0.9993 0.0353 -0.0085
vn -0.0731 0.9971 -0.0191
vn -0.0846 0.9932 0.0803
usemtl Material.001
s off
f 24/1/1 2/2/1 18/3/1
f 16/4/2 73/5/2 86/6/2
f 7/7/2 76/8/2 77/9/2
f 20/10/1 6/11/1 19/12/1
f 46/13/1 8/14/1 20/10/1
f 80/15/2 7/7/2 77/9/2
f 71/16/2 9/17/2 80/15/2
f 17/18/3 114/19/3 21/20/3
f 82/21/4 22/22/4 87/23/4
f 14/24/5 82/25/5 83/26/5
f 23/27/1 11/28/1 22/29/1
f 45/30/6 13/31/6 23/27/6
f 43/32/7 83/26/7 72/33/7
f 5/34/2 86/35/2 76/8/2
f 19/12/1 15/36/1 24/37/1
f 5/38/1 24/37/1 16/39/1
f 43/40/1 23/27/1 14/41/1
f 14/41/1 22/29/1 12/42/1
f 87/23/4 11/43/4 81/44/4
f 3/45/1 46/13/1 9/46/1
f 9/46/1 20/10/1 7/47/1
f 7/47/1 19/12/1 5/38/1
f 38/48/8 42/49/8 37/50/8
f 18/51/9 73/52/9 1/53/9
f 6/54/10 85/55/10 15/56/10
f 3/57/11 84/58/11 13/59/11
f 72/33/12 44/60/12 43/32/12
f 79/61/13 8/62/13 44/60/13
f 8/62/14 75/63/14 6/54/14
f 15/64/15 74/65/15 2/66/15
f 2/66/16 88/67/16 18/51/16
f 84/58/17 11/68/17 13/59/17
f 38/69/18 25/70/18 26/71/18
f 33/72/19 25/73/19 28/74/19
f 35/75/2 26/76/2 36/77/2
f 36/78/20 25/79/20 34/80/20
f 1/81/21 31/82/21 18/83/21
f 16/84/2 32/85/2 1/86/2
f 24/87/22 31/88/22 29/89/22
f 24/90/23 30/91/23 16/92/23
f 32/93/20 34/80/20 31/82/20
f 30/94/2 36/77/2 32/85/2
f 29/89/24 34/95/24 33/72/24
f 29/96/25 37/97/25 30/91/25
f 41/98/26 39/99/26 40/100/26
f 37/101/26 28/102/26 38/103/26
f 38/104/27 40/105/27 39/106/27
f 27/107/28 41/108/28 40/109/28
f 37/110/29 41/111/29 35/112/29
f 10/113/1 43/40/1 44/114/1
f 4/115/1 45/30/1 43/40/1
f 21/116/1 44/114/1 46/13/1
f 21/116/1 45/30/1 17/117/1
f 4/118/9 113/119/9 17/120/9
f 21/121/30 112/122/30 10/123/30
f 10/124/31 111/125/31 4/126/31
f 70/127/32 48/128/32 61/129/32
f 73/5/2 62/130/2 86/6/2
f 76/8/2 53/131/2 77/9/2
f 66/132/32 52/133/32 54/134/32
f 110/135/32 54/134/32 108/136/32
f 80/15/2 53/131/2 55/137/2
f 71/16/2 55/137/2 49/138/2
f 114/19/3 63/139/3 67/140/3
f 68/141/4 82/21/4 87/23/4
f 82/25/5 60/142/5 83/26/5
f 69/143/33 57/144/33 59/145/33
f 109/146/34 59/145/34 49/147/34
f 83/26/7 107/148/7 72/33/7
f 86/35/2 51/149/2 76/8/2
f 65/150/32 61/151/32 52/133/32
f 51/152/32 70/153/32 65/150/32
f 107/154/32 69/143/32 109/146/32
f 60/155/32 68/156/32 69/143/32
f 57/157/4 87/23/4 81/44/4
f 49/147/32 110/135/32 109/146/32
f 55/158/32 66/132/32 110/135/32
f 53/159/32 65/150/32 66/132/32
f 106/160/35 102/161/35 101/162/35
f 73/52/9 64/163/9 47/164/9
f 52/165/10 85/55/10 75/63/10
f 49/138/11 84/58/11 71/16/11
f 108/166/12 72/33/12 107/148/12
f 54/167/13 79/61/13 108/166/13
f 54/167/14 75/63/14 78/168/14
f 61/169/15 74/65/15 85/170/15
f 88/67/16 48/171/16 64/163/16
f 57/172/17 84/58/17 59/173/17
f 89/174/36 92/175/36 102/176/36
f 97/177/37 89/178/37 98/179/37
f 90/180/2 99/181/2 100/182/2
f 89/183/38 100/184/38 98/185/38
f 95/186/39 47/187/39 64/188/39
f 96/189/2 62/190/2 47/191/2
f 70/192/40 95/193/40 64/194/40
f 94/195/41 70/196/41 62/197/41
f 98/185/38 96/198/38 95/186/38
f 100/182/2 94/199/2 96/189/2
f 93/200/42 98/179/42 95/193/42
f 99/201/43 101/202/43 94/195/43
f 105/203/44 103/204/44 106/205/44
f 92/206/44 101/207/44 102/208/44
f 102/209/45 104/210/45 91/211/45
f 91/212/46 105/213/46 99/214/46
f 105/215/47 101/216/47 99/217/47
f 56/218/32 107/154/32 50/219/32
f 50/219/32 109/146/32 63/220/32
f 67/221/32 108/136/32 56/218/32
f 109/146/32 67/221/32 63/220/32
f 113/119/9 50/222/9 63/223/9
f 112/122/30 67/224/30 56/225/30
f 111/125/31 56/226/31 50/227/31
f 24/1/1 15/228/1 2/2/1
f 16/4/2 1/229/2 73/5/2
f 7/7/2 5/34/2 76/8/2
f 20/10/1 8/14/1 6/11/1
f 46/13/1 44/114/1 8/14/1
f 80/15/2 9/17/2 7/7/2
f 71/16/2 3/57/2 9/17/2
f 17/18/3 113/230/3 114/19/3
f 82/21/4 12/231/4 22/22/4
f 14/24/5 12/232/5 82/25/5
f 23/27/48 13/31/48 11/28/48
f 45/30/49 3/45/49 13/31/49
f 43/32/7 14/24/7 83/26/7
f 5/34/2 16/233/2 86/35/2
f 19/12/1 6/11/1 15/36/1
f 5/38/1 19/12/1 24/37/1
f 43/40/1 45/30/1 23/27/1
f 14/41/1 23/27/1 22/29/1
f 87/23/4 22/22/4 11/43/4
f 3/45/1 45/30/1 46/13/1
f 9/46/1 46/13/1 20/10/1
f 7/47/1 20/10/1 19/12/1
f 38/48/8 39/234/8 42/49/8
f 18/51/9 88/67/9 73/52/9
f 6/54/10 75/63/10 85/55/10
f 3/57/11 71/16/11 84/58/11
f 72/33/12 79/61/12 44/60/12
f 79/61/13 78/168/13 8/62/13
f 8/62/14 78/168/14 75/63/14
f 15/64/15 85/170/15 74/65/15
f 2/66/16 74/65/16 88/67/16
f 84/58/17 81/235/17 11/68/17
f 26/71/18 27/236/18 38/69/18
f 38/69/18 28/237/18 25/70/18
f 33/72/50 34/95/50 25/73/50
f 35/75/2 27/238/2 26/76/2
f 36/78/20 26/239/20 25/79/20
f 1/81/21 32/93/21 31/82/21
f 16/84/2 30/94/2 32/85/2
f 24/87/22 18/240/22 31/88/22
f 24/90/23 29/96/23 30/91/23
f 32/93/20 36/78/20 34/80/20
f 30/94/2 35/75/2 36/77/2
f 29/89/51 31/88/51 34/95/51
f 35/241/25 30/91/25 37/97/25
f 29/96/25 33/242/25 37/97/25
f 41/98/26 42/243/26 39/99/26
f 37/101/26 33/244/26 28/102/26
f 38/104/27 27/245/27 40/105/27
f 27/107/28 35/246/28 41/108/28
f 37/110/29 42/247/29 41/111/29
f 10/113/1 4/115/1 43/40/1
f 4/115/1 17/117/1 45/30/1
f 21/116/1 10/113/1 44/114/1
f 21/116/1 46/13/1 45/30/1
f 4/118/9 111/248/9 113/119/9
f 21/121/30 114/249/30 112/122/30
f 10/124/31 112/250/31 111/125/31
f 70/127/32 64/251/32 48/128/32
f 73/5/2 47/252/2 62/130/2
f 76/8/2 51/149/2 53/131/2
f 66/132/32 65/150/32 52/133/32
f 110/135/32 66/132/32 54/134/32
f 80/15/2 77/9/2 53/131/2
f 71/16/2 80/15/2 55/137/2
f 114/19/3 113/230/3 63/139/3
f 68/141/4 58/253/4 82/21/4
f 82/25/5 58/254/5 60/142/5
f 69/143/32 68/156/32 57/144/32
f 109/146/52 69/143/52 59/145/52
f 83/26/7 60/142/7 107/148/7
f 86/35/2 62/255/2 51/149/2
f 65/150/32 70/153/32 61/151/32
f 51/152/32 62/256/32 70/153/32
f 107/154/32 60/155/32 69/143/32
f 60/155/32 58/257/32 68/156/32
f 57/157/4 68/141/4 87/23/4
f 49/147/32 55/158/32 110/135/32
f 55/158/32 53/159/32 66/132/32
f 53/159/32 51/152/32 65/150/32
f 106/160/35 103/258/35 102/161/35
f 73/52/9 88/67/9 64/163/9
f 52/165/10 61/259/10 85/55/10
f 49/138/11 59/173/11 84/58/11
f 108/166/12 79/61/12 72/33/12
f 54/167/13 78/168/13 79/61/13
f 54/167/14 52/165/14 75/63/14
f 61/169/15 48/171/15 74/65/15
f 88/67/16 74/65/16 48/171/16
f 57/172/17 81/235/17 84/58/17
f 102/176/36 91/260/36 90/261/36
f 90/261/36 89/174/36 102/176/36
f 97/177/53 92/262/53 89/178/53
f 90/180/2 91/263/2 99/181/2
f 89/183/38 90/264/38 100/184/38
f 95/186/39 96/198/39 47/187/39
f 96/189/2 94/199/2 62/190/2
f 70/192/40 93/200/40 95/193/40
f 94/195/41 93/265/41 70/196/41
f 98/185/38 100/184/38 96/198/38
f 100/182/2 99/181/2 94/199/2
f 93/200/54 97/177/54 98/179/54
f 93/265/43 94/195/43 101/202/43
f 101/202/43 97/266/43 93/265/43
f 105/203/44 104/267/44 103/204/44
f 92/206/44 97/268/44 101/207/44
f 102/209/45 103/269/45 104/210/45
f 91/212/46 104/270/46 105/213/46
f 105/215/47 106/271/47 101/216/47
f 56/218/32 108/136/32 107/154/32
f 50/219/32 107/154/32 109/146/32
f 67/221/32 110/135/32 108/136/32
f 109/146/32 110/135/32 67/221/32
f 113/119/9 111/248/9 50/222/9
f 112/122/30 114/249/30 67/224/30
f 111/125/31 112/250/31 56/226/31
