# Blender v2.78 (sub 0) OBJ File: ''
# www.blender.org
mtllib fence_small.mtl
o Plane.005
v 5.210845 -0.307993 -0.289447
v 4.662337 -0.307993 -0.289481
v 4.113829 -0.307993 -0.289516
v 3.565321 -0.307993 -0.289550
v 3.016813 -0.307993 -0.289584
v 2.468305 -0.307993 -0.289619
v 1.919797 -0.307993 -0.289653
v 1.371289 -0.307993 -0.289688
v 0.822781 -0.307993 -0.289722
v 0.274273 -0.307993 -0.289756
v -0.274235 -0.307993 -0.289791
v -0.822743 -0.307993 -0.289825
v -1.371251 -0.307993 -0.289859
v -1.919759 -0.307993 -0.289894
v -2.468266 -0.307993 -0.289928
v -3.016774 -0.307993 -0.289962
v -3.565282 -0.307993 -0.289997
v -4.113791 -0.307993 -0.290031
v -4.662298 -0.307993 -0.290065
v -5.210806 -0.307993 -0.290100
v -5.210842 -0.307993 0.289448
v -4.662334 -0.307993 0.289482
v -4.113827 -0.307993 0.289516
v -3.565319 -0.307993 0.289551
v -3.016811 -0.307993 0.289585
v -2.468303 -0.307993 0.289619
v -1.919795 -0.307993 0.289654
v -1.371287 -0.307993 0.289688
v -0.822779 -0.307993 0.289722
v -0.274271 -0.307993 0.289757
v 0.274237 -0.307993 0.289791
v 0.822745 -0.307993 0.289826
v 1.371253 -0.307993 0.289860
v 1.919760 -0.307993 0.289894
v 2.468268 -0.307993 0.289929
v 3.016777 -0.307993 0.289963
v 3.565284 -0.307993 0.289997
v 4.113792 -0.307993 0.290032
v 4.662300 -0.307993 0.290066
v 5.210807 -0.307993 0.290100
v 4.662337 0.318609 -0.289481
v 4.113829 0.318609 -0.289516
v 3.565321 0.318609 -0.289550
v 3.016813 0.318609 -0.289584
v 2.468305 0.318609 -0.289619
v 1.919797 0.318609 -0.289653
v 1.371289 0.318609 -0.289688
v 0.822781 0.318609 -0.289722
v 0.274273 0.318609 -0.289756
v -0.274235 0.318609 -0.289791
v -0.822743 0.318609 -0.289825
v -1.371251 0.318609 -0.289859
v -1.919759 0.318609 -0.289894
v -2.468266 0.318609 -0.289928
v -3.016774 0.318609 -0.289962
v -3.565282 0.318609 -0.289997
v -4.113791 0.318609 -0.290031
v -4.662298 0.318609 -0.290065
v -4.662334 0.318609 0.289482
v -4.113827 0.318609 0.289516
v -3.565319 0.318609 0.289551
v -3.016811 0.318609 0.289585
v -2.468303 0.318609 0.289619
v -1.919795 0.318609 0.289654
v -1.371287 0.318609 0.289688
v -0.822779 0.318609 0.289722
v -0.274271 0.318609 0.289757
v 0.274237 0.318609 0.289791
v 0.822745 0.318609 0.289826
v 1.371253 0.318609 0.289860
v 1.919760 0.318609 0.289894
v 2.468268 0.318609 0.289929
v 3.016777 0.318609 0.289963
v 3.565284 0.318609 0.289997
v 4.113792 0.318609 0.290032
v 4.662300 0.318609 0.290066
vt 0.2194 0.0516
vt 0.1673 0.1112
vt 0.1673 0.0516
vt 0.4815 0.3463
vt 0.4241 0.4084
vt 0.4241 0.3463
vt 0.0406 0.2343
vt 0.0893 0.2858
vt 0.0406 0.2858
vt 0.1086 0.4598
vt 0.0568 0.5158
vt 0.0568 0.4598
vt 0.1380 0.2343
vt 0.1867 0.2858
vt 0.1380 0.2858
vt 0.5326 0.1229
vt 0.4804 0.1825
vt 0.4804 0.1229
vt 0.2354 0.2343
vt 0.2841 0.2858
vt 0.2354 0.2858
vt 0.1605 0.4598
vt 0.1087 0.5158
vt 0.1087 0.4598
vt 0.3328 0.2343
vt 0.3815 0.2857
vt 0.3328 0.2857
vt 0.8445 0.0516
vt 0.7924 0.1112
vt 0.7924 0.0516
vt 0.4303 0.2343
vt 0.4790 0.2857
vt 0.4303 0.2857
vt 0.4240 0.4706
vt 0.3666 0.5327
vt 0.3666 0.4706
vt 0.5277 0.2343
vt 0.5764 0.2857
vt 0.5277 0.2857
vt 0.1152 0.0516
vt 0.0631 0.1112
vt 0.0631 0.0516
vt 0.6251 0.2857
vt 0.6738 0.2343
vt 0.6738 0.2857
vt 0.4815 0.4085
vt 0.4241 0.4705
vt 0.4241 0.4085
vt 0.7225 0.2857
vt 0.7712 0.2343
vt 0.7712 0.2857
vt 0.1605 0.3477
vt 0.1087 0.4037
vt 0.1087 0.3477
vt 0.8199 0.2857
vt 0.8687 0.2342
vt 0.8687 0.2857
vt 0.4282 0.1229
vt 0.3760 0.1825
vt 0.3760 0.1229
vt 0.9174 0.2857
vt 0.9661 0.2342
vt 0.9661 0.2857
vt 0.0893 0.2343
vt 0.1380 0.2858
vt 0.0893 0.2858
vt 0.1867 0.2343
vt 0.2354 0.2858
vt 0.1867 0.2858
vt 0.2841 0.2343
vt 0.3328 0.2857
vt 0.2841 0.2858
vt 0.3815 0.2343
vt 0.4303 0.2857
vt 0.3815 0.2857
vt 0.4790 0.2343
vt 0.5277 0.2857
vt 0.4790 0.2857
vt 0.5764 0.2343
vt 0.6251 0.2857
vt 0.5764 0.2857
vt 0.6738 0.2857
vt 0.7225 0.2343
vt 0.7225 0.2857
vt 0.7712 0.2857
vt 0.8199 0.2343
vt 0.8199 0.2857
vt 0.8687 0.2857
vt 0.9174 0.2342
vt 0.9174 0.2857
vt 0.3665 0.4706
vt 0.3091 0.5327
vt 0.3091 0.4706
vt 0.9487 0.0516
vt 0.8966 0.1112
vt 0.8966 0.0516
vt 0.2123 0.4598
vt 0.1606 0.5158
vt 0.1606 0.4598
vt 0.6370 0.1229
vt 0.5848 0.1825
vt 0.5848 0.1229
vt 0.5390 0.3463
vt 0.4816 0.4084
vt 0.4816 0.3463
vt 0.3236 0.0516
vt 0.2715 0.1112
vt 0.2715 0.0516
vt 0.2123 0.3477
vt 0.1606 0.4037
vt 0.1606 0.3477
vt 0.7415 0.1229
vt 0.6892 0.1825
vt 0.6892 0.1229
vt 0.4240 0.4085
vt 0.3666 0.4705
vt 0.3666 0.4085
vt 0.4277 0.0516
vt 0.3757 0.1112
vt 0.3757 0.0516
vt 0.1150 0.1229
vt 0.0627 0.1825
vt 0.0627 0.1229
vt 0.1086 0.4038
vt 0.0568 0.4597
vt 0.0568 0.4038
vt 0.8459 0.1229
vt 0.7937 0.1825
vt 0.7937 0.1229
vt 0.4240 0.3463
vt 0.3666 0.4084
vt 0.3666 0.3463
vt 0.5319 0.0516
vt 0.4798 0.1112
vt 0.4798 0.0516
vt 0.2194 0.1229
vt 0.1672 0.1825
vt 0.1672 0.1229
vt 0.1605 0.4038
vt 0.1087 0.4597
vt 0.1087 0.4038
vt 0.9503 0.1229
vt 0.8981 0.1825
vt 0.8981 0.1229
vt 0.3665 0.4085
vt 0.3091 0.4705
vt 0.3091 0.4085
vt 0.6361 0.0516
vt 0.5840 0.1112
vt 0.5840 0.0516
vt 0.3238 0.1229
vt 0.2716 0.1825
vt 0.2716 0.1229
vt 0.1086 0.3477
vt 0.0568 0.4037
vt 0.0568 0.3477
vt 0.3665 0.3463
vt 0.3091 0.4084
vt 0.3091 0.3463
vt 0.7403 0.0516
vt 0.6882 0.1112
vt 0.6882 0.0516
vt 0.2642 0.3477
vt 0.2124 0.4037
vt 0.2124 0.3477
vt 0.2194 0.1112
vt 0.4815 0.4084
vt 0.0893 0.2343
vt 0.1086 0.5158
vt 0.1867 0.2343
vt 0.5326 0.1825
vt 0.2841 0.2343
vt 0.1605 0.5158
vt 0.3815 0.2343
vt 0.8445 0.1112
vt 0.4790 0.2343
vt 0.4240 0.5327
vt 0.5764 0.2343
vt 0.1152 0.1112
vt 0.6251 0.2343
vt 0.4815 0.4705
vt 0.7225 0.2343
vt 0.1605 0.4037
vt 0.8199 0.2343
vt 0.4282 0.1825
vt 0.9174 0.2342
vt 0.1380 0.2343
vt 0.2354 0.2343
vt 0.3328 0.2343
vt 0.4303 0.2343
vt 0.5277 0.2343
vt 0.6251 0.2343
vt 0.6738 0.2343
vt 0.7712 0.2343
vt 0.8687 0.2342
vt 0.3665 0.5327
vt 0.9487 0.1112
vt 0.2123 0.5158
vt 0.6370 0.1825
vt 0.5390 0.4084
vt 0.3236 0.1112
vt 0.2123 0.4037
vt 0.7415 0.1825
vt 0.4240 0.4705
vt 0.4277 0.1112
vt 0.1150 0.1825
vt 0.1086 0.4597
vt 0.8459 0.1825
vt 0.4240 0.4084
vt 0.5319 0.1112
vt 0.2194 0.1825
vt 0.1605 0.4597
vt 0.9503 0.1825
vt 0.3665 0.4705
vt 0.6361 0.1112
vt 0.3238 0.1825
vt 0.1086 0.4037
vt 0.3665 0.4084
vt 0.7403 0.1112
vt 0.2642 0.4037
vn 0.0001 0.0000 -1.0000
vn 1.0000 0.0000 0.0001
vn 0.0000 1.0000 0.0000
vn -1.0000 0.0000 -0.0001
vn -0.0001 0.0000 1.0000
usemtl None
s off
f 5/1/1 43/2/1 4/3/1
f 16/4/2 62/5/2 25/6/2
f 21/7/3 19/8/3 20/9/3
f 38/10/4 42/11/4 3/12/4
f 23/13/3 17/14/3 18/15/3
f 31/16/5 67/17/5 30/18/5
f 25/19/3 15/20/3 16/21/3
f 24/22/4 56/23/4 17/24/4
f 27/25/3 13/26/3 14/27/3
f 17/28/1 55/29/1 16/30/1
f 29/31/3 11/32/3 12/33/3
f 4/34/2 74/35/2 37/36/2
f 31/37/3 9/38/3 10/39/3
f 3/40/1 41/41/1 2/42/1
f 8/43/3 34/44/3 7/45/3
f 18/46/2 60/47/2 23/48/2
f 6/49/3 36/50/3 5/51/3
f 36/52/4 44/53/4 5/54/4
f 4/55/3 38/56/3 3/57/3
f 29/58/5 65/59/5 28/60/5
f 2/61/3 40/62/3 1/63/3
f 59/64/3 57/65/3 58/66/3
f 61/67/3 55/68/3 56/69/3
f 63/70/3 53/71/3 54/72/3
f 65/73/3 51/74/3 52/75/3
f 67/76/3 49/77/3 50/78/3
f 69/79/3 47/80/3 48/81/3
f 46/82/3 72/83/3 45/84/3
f 44/85/3 74/86/3 43/87/3
f 42/88/3 76/89/3 41/90/3
f 2/91/2 76/92/2 39/93/2
f 19/94/1 57/95/1 18/96/1
f 26/97/4 54/98/4 15/99/4
f 33/100/5 69/101/5 32/102/5
f 14/103/2 64/104/2 27/105/2
f 7/106/1 45/107/1 6/108/1
f 28/109/4 52/110/4 13/111/4
f 35/112/5 71/113/5 34/114/5
f 12/115/2 66/116/2 29/117/2
f 9/118/1 47/119/1 8/120/1
f 23/121/5 59/122/5 22/123/5
f 30/124/4 50/125/4 11/126/4
f 37/127/5 73/128/5 36/129/5
f 10/130/2 68/131/2 31/132/2
f 11/133/1 49/134/1 10/135/1
f 25/136/5 61/137/5 24/138/5
f 32/139/4 48/140/4 9/141/4
f 39/142/5 75/143/5 38/144/5
f 8/145/2 70/146/2 33/147/2
f 13/148/1 51/149/1 12/150/1
f 27/151/5 63/152/5 26/153/5
f 34/154/4 46/155/4 7/156/4
f 6/157/2 72/158/2 35/159/2
f 15/160/1 53/161/1 14/162/1
f 22/163/4 58/164/4 19/165/4
f 5/1/1 44/166/1 43/2/1
f 16/4/2 55/167/2 62/5/2
f 21/7/3 22/168/3 19/8/3
f 38/10/4 75/169/4 42/11/4
f 23/13/3 24/170/3 17/14/3
f 31/16/5 68/171/5 67/17/5
f 25/19/3 26/172/3 15/20/3
f 24/22/4 61/173/4 56/23/4
f 27/25/3 28/174/3 13/26/3
f 17/28/1 56/175/1 55/29/1
f 29/31/3 30/176/3 11/32/3
f 4/34/2 43/177/2 74/35/2
f 31/37/3 32/178/3 9/38/3
f 3/40/1 42/179/1 41/41/1
f 8/43/3 33/180/3 34/44/3
f 18/46/2 57/181/2 60/47/2
f 6/49/3 35/182/3 36/50/3
f 36/52/4 73/183/4 44/53/4
f 4/55/3 37/184/3 38/56/3
f 29/58/5 66/185/5 65/59/5
f 2/61/3 39/186/3 40/62/3
f 59/64/3 60/187/3 57/65/3
f 61/67/3 62/188/3 55/68/3
f 63/70/3 64/189/3 53/71/3
f 65/73/3 66/190/3 51/74/3
f 67/76/3 68/191/3 49/77/3
f 69/79/3 70/192/3 47/80/3
f 46/82/3 71/193/3 72/83/3
f 44/85/3 73/194/3 74/86/3
f 42/88/3 75/195/3 76/89/3
f 2/91/2 41/196/2 76/92/2
f 19/94/1 58/197/1 57/95/1
f 26/97/4 63/198/4 54/98/4
f 33/100/5 70/199/5 69/101/5
f 14/103/2 53/200/2 64/104/2
f 7/106/1 46/201/1 45/107/1
f 28/109/4 65/202/4 52/110/4
f 35/112/5 72/203/5 71/113/5
f 12/115/2 51/204/2 66/116/2
f 9/118/1 48/205/1 47/119/1
f 23/121/5 60/206/5 59/122/5
f 30/124/4 67/207/4 50/125/4
f 37/127/5 74/208/5 73/128/5
f 10/130/2 49/209/2 68/131/2
f 11/133/1 50/210/1 49/134/1
f 25/136/5 62/211/5 61/137/5
f 32/139/4 69/212/4 48/140/4
f 39/142/5 76/213/5 75/143/5
f 8/145/2 47/214/2 70/146/2
f 13/148/1 52/215/1 51/149/1
f 27/151/5 64/216/5 63/152/5
f 34/154/4 71/217/4 46/155/4
f 6/157/2 45/218/2 72/158/2
f 15/160/1 54/219/1 53/161/1
f 22/163/4 59/220/4 58/164/4
